<?xml version="1.0" standalone="no"?>
<!DOCTYPE svg PUBLIC "-//W3C//DTD SVG 20010904//EN"
 "http://www.w3.org/TR/2001/REC-SVG-20010904/DTD/svg10.dtd">
<svg version="1.0" xmlns="http://www.w3.org/2000/svg"
 width="90.000000pt" height="90.000000pt" viewBox="0 0 90.000000 90.000000"
 preserveAspectRatio="xMidYMid meet">
<metadata>
Created by potrace 1.11, written by Peter Selinger 2001-2013
</metadata>
<g transform="translate(0.000000,90.000000) scale(0.100000,-0.100000)"
fill="#000000" stroke="none">
<path d="M416 775 c-15 -16 -11 -44 8 -57 5 -3 -8 -10 -30 -14 -44 -8 -80 -32
-106 -72 l-18 -27 83 -6 82 -5 -89 -2 c-70 -2 -87 -5 -78 -14 9 -9 12 -69 12
-210 0 -252 -9 -238 163 -238 107 0 126 2 140 18 10 10 17 26 17 35 0 12 8 17
28 17 91 0 156 134 123 253 -20 70 -64 107 -127 107 -14 0 -24 6 -24 15 0 11
-17 15 -72 18 l-73 3 72 2 c64 2 72 4 66 20 -11 32 -57 72 -94 84 -32 9 -36
13 -24 25 21 21 0 62 -32 63 -6 0 -18 -7 -27 -15z m14 -345 l0 -130 -60 0 -60
0 0 130 0 130 60 0 60 0 0 -130z m140 120 c0 -5 -17 -11 -37 -12 l-38 -1 38
-4 c20 -2 37 -8 37 -14 0 -5 -17 -10 -37 -11 l-38 -1 38 -4 c53 -6 46 -23 -10
-25 l-48 -2 48 -3 c56 -5 63 -22 10 -25 l-38 -1 38 -4 c20 -2 37 -8 37 -14 0
-5 -17 -10 -37 -11 l-38 -1 38 -4 c53 -6 46 -23 -10 -25 l-48 -2 48 -3 c56 -5
63 -22 10 -25 l-38 -1 38 -4 c20 -2 37 -8 37 -14 0 -5 -17 -10 -37 -11 l-38
-1 38 -4 c57 -6 44 -23 -18 -23 l-55 0 0 130 0 130 55 0 c30 0 55 -4 55 -10z
m98 -31 c85 -29 76 -259 -11 -283 -58 -15 -57 -19 -57 144 0 166 -1 163 68
139z"/>
</g>
</svg>
